<?xml version="1.0" encoding="utf-8"?>
<!-- Generator: Adobe Illustrator 23.0.0, SVG Export Plug-In . SVG Version: 6.00 Build 0)  -->
<svg version="1.1" id="Layer_1" xmlns="http://www.w3.org/2000/svg" xmlns:xlink="http://www.w3.org/1999/xlink" x="0px" y="0px"
	 viewBox="0 0 20 16" style="enable-background:new 0 0 20 16;" xml:space="preserve">
<style type="text/css">
	.st0{fill-rule:evenodd;clip-rule:evenodd;fill:#2B2D42;fill-opacity:0.65;}
</style>
<title>“</title>
<desc>Created with Sketch.</desc>
<g id="visualization">
	<g id="Desktop-HD-Copy-8" transform="translate(-182.000000, -371.000000)">
		<g id="love-dove-pine" transform="translate(105.000000, 54.000000)">
			<path class="st0" d="M91.2,324.2h2.2c1.7,0.4,3.1,1.6,3.1,3.8c0,2.5-1.9,4.1-4.3,4.1c-2.9,0-4.6-2.3-4.6-5.6c0-4.8,3.2-8.3,9-8.8
				v1.6C93.4,319.9,91.4,321.6,91.2,324.2z M80.8,324.2h2.3c1.7,0.4,3.1,1.6,3.1,3.8c0,2.5-1.9,4.1-4.3,4.1c-2.9,0-4.6-2.3-4.6-5.6
				c0-4.8,3.2-8.3,9-8.8v1.6C83,319.9,81.1,321.6,80.8,324.2z"/>
		</g>
	</g>
</g>
</svg>
