<?xml version="1.0" encoding="UTF-8"?>
<svg width="1440px" height="127px" viewBox="0 0 1440 127" version="1.1" xmlns="http://www.w3.org/2000/svg" xmlns:xlink="http://www.w3.org/1999/xlink">
    <!-- Generator: Sketch 52.4 (67378) - http://www.bohemiancoding.com/sketch -->
    <title>line</title>
    <desc>Created with Sketch.</desc>
    <g id="visualization" stroke="none" stroke-width="1" fill="none" fill-rule="evenodd" stroke-linejoin="round">
        <g id="Desktop-HD-Copy-8" transform="translate(0.000000, -731.000000)">
            <g id="line" transform="translate(0.000000, 732.000000)">
                <path d="M0,0 C27.0373188,17.4324173 46.7039854,27.3959922 59,29.8907247 C91.8809654,36.5619281 120.57661,24.5319152 135,29.8907247 C214.839772,59.5540803 250.116055,91.2165175 283,96.0488622 C346.645799,105.401707 372.539996,53.6452997 410,59.980721 C533.613184,80.8867946 637.413873,119.961442 720,119.961442 C799.045625,119.961442 902.843964,122.343005 1015,89.6721742 C1048.59873,79.8849323 1068.68792,29.3760073 1107,21.9198648 C1145.05843,14.5130877 1205.68077,63.7602893 1278,59.980721 C1310.1342,58.3013142 1364.1342,38.3077405 1440,0" id="line1" stroke-opacity="0.15" stroke="#2B2D42"></path>
                <path d="M0,4 C289.101541,70.6666667 566.101541,104 831,104 C922.893452,104 987.004278,49.0744643 1064,41.0517928 C1109.23287,36.3386942 1159.19394,79.4337766 1217,73.7211155 C1243.69999,71.0824996 1290.60112,107.9475 1340,91.250996 C1350.41438,87.7310021 1360.61161,42.5336229 1377,28.3027888 C1388.19661,18.5802266 1409.19661,10.479297 1440,4" id="line2" stroke-opacity="0.15" stroke="#2B2D42"></path>
                <path d="M0,7 C54.5753481,43.0848697 94.5753481,61.766878 120,63.0460251 C256.01717,69.8892246 358.395816,26.9777704 421,35.2217573 C540.534805,50.9626122 639.410999,102 720,102 C819.285844,102 935.601047,59.1136985 1094,35.2217573 C1146.09309,27.364351 1225.45893,70.1661796 1338,63.0460251 C1358.50572,61.7486866 1392.50572,43.0666782 1440,7" id="line3" stroke-opacity="0.15" stroke="#2B2D42"></path>
                <path d="M0,10 C22.4090968,32.8562183 39.4090968,44.9130881 51,46.1706095 C73.9579846,48.6613695 144,29.4764821 161,24.7067313 C215.986439,9.27898984 202.286854,56.909147 229,58.4130214 C259.908854,60.1531022 285.331862,13.7948031 305,17.5521053 C348.900854,25.9387036 339.451375,67.2774506 374,82.7386983 C431.329709,108.394968 528.837958,108.972327 597,108.972327 C636.725481,108.972327 671.949994,37.1957748 720,34.2462328 C746.135248,32.6419247 778.330013,73.2851873 816,71.60928 C828.602433,71.0486079 855.725884,110.186355 873,108.972327 C883.051629,108.265897 885.120405,48.0189026 900,46.1706095 C911.207122,44.7784987 927.277909,73.3305116 947,71.60928 C956.633138,70.7685546 968.173102,35.9842064 984,34.2462328 C1003.10228,32.1485843 1036.42086,62.2580512 1083,59.5 C1116.1553,57.5368034 1202.85811,104.752584 1288,92.2781997 C1321.76792,87.3307648 1372.43458,59.9046982 1440,10" id="line4" stroke-opacity="0.15" stroke="#2B2D42"></path>
                <path d="M0,13 C28.8520658,59.5513248 53.8520658,85.6061627 75,91.1645136 C97.9128869,97.1867503 112.871718,35.1627683 138,29.2677414 C172.494883,21.1753354 215.906122,66.9987736 232,67.3580628 C307.738747,69.0488992 368.377351,20.0520437 415,22.9193545 C480.471841,26.9458979 544.25151,67.3580628 606,67.3580628 C679.392698,67.3580628 762.671083,14.0644407 866,22.9193545 C908.943071,26.5994201 960.36699,103.240085 1008,99.8935456 C1061.78989,96.1144439 1123.36673,51.612911 1225,29.2677414 C1251.8247,23.3700434 1294.08426,59.4193613 1352,56.5 C1369.4211,55.6218536 1398.75444,41.1218536 1440,13" id="line5" stroke-opacity="0.15" stroke="#2B2D42"></path>
                <path d="M0,16.0935878 C97.817648,15.9113665 165.150981,19.4796685 202,26.7984939 C264.495415,39.2111182 312.058167,82.0183609 343,82.305414 C399.293597,82.8276601 442.269659,13.6848791 477,16.0935878 C541.882217,20.5934678 604.742335,56.8780698 663,58.5167339 C702.74698,59.6347319 741.903136,26.7984939 772,26.7984939 C809.436768,26.7984939 843.471185,94.2597511 883,108.472962 C910.006124,118.183441 940.372639,78.666358 973,71.996986 C1014.60082,63.4933447 1051.51206,20.3801027 1099,16.0935878 C1129.49989,13.3405056 1182.17811,72.2442645 1232,71.996986 C1254.51344,71.8852462 1278.53885,38.7269022 1320,26.7984939 C1341.18663,20.7030813 1381.18663,17.1347793 1440,16.0935878" id="line6" stroke-opacity="0.15" stroke="#2B2D42"></path>
                <path d="M0,47.6726783 C61.789812,68.7952479 105.123145,79.2421718 130,79.01345 C177.199437,78.5794906 216.10298,43.962098 241,47.6726783 C323.851752,60.0206654 385.63042,107.566857 428,108.80765 C499.334538,110.896683 592.838105,63.1106067 633,64.8544025 C668.354198,66.3894521 700.050037,116 730,116 C753.045962,116 763.904924,107.039989 778,91.2263512 C793.538511,73.7932855 812.319456,48.9737707 840,40.0807537 C884.262673,25.8603427 970.384441,53.8656369 1031,47.6726783 C1062.00729,44.5047318 1078.03677,81.5014034 1119,91.2263512 C1147.80239,98.064234 1194.62203,78.0478788 1243,79.01345 C1263.7037,79.4266731 1301.70402,100.763165 1353.7,91.2263512 C1370.72764,88.1032365 1399.49431,73.5853456 1440,47.6726783" id="line7" stroke-opacity="0.15" stroke="#2B2D42"></path>
                <path d="M0,80.3329391 C56.2281623,66.8376135 93.2281623,60.8976121 111,62.512935 C162.411493,67.1858429 180.044309,96.2228848 203,93.4009421 C258.288243,86.6043592 292.566609,40.7557982 318,41.9209303 C376.756877,44.6126483 395.368984,105.017471 425,102.904944 C481.799651,98.8554455 522.72424,34.0982538 554,34.0009284 C632.096844,33.757903 684.811634,81.3072776 725,80.3329391 C772.690709,79.1767117 816.811965,56.7528766 850,56.1769335 C897.615837,55.3506112 970.628885,41.9209303 1011,41.9209303 C1080.33194,41.9209303 1118.22676,100.467837 1172,102.904944 C1226.36513,105.368877 1285.41698,59.1827295 1348,51.4249324 C1367.94673,48.9523345 1398.61339,58.5883368 1440,80.3329391" id="line8" stroke-opacity="0.15" stroke="#2B2D42"></path>
                <path d="M0,93.2689116 C45.2289715,69.9420823 85.2289715,55.7127306 120,50.5808566 C148.497236,46.3749349 189.75801,68.46953 228,67.1354529 C268.673008,65.7165694 305.991709,41.0059658 323,41.0059658 C361.319642,41.0059658 372.083622,82.9757232 385,81.6992519 C412.477482,78.9837678 432.493337,41.6535863 447,41.0059658 C459.987089,40.4261836 477.374483,82.300143 487,81.6992519 C518.964093,79.703833 545.061431,41.261221 567,41.0059658 C590.248552,40.735469 612.226054,93.6448754 633,93.2689116 C667.114831,92.6515065 702.372704,41.0059658 737,41.0059658 C791.602265,41.0059658 844.670676,91.7337489 897,93.2689116 C965.916048,95.2906718 1053.69034,93.6346993 1150,81.6992519 C1175.42242,78.5487066 1196.67612,50.7552185 1224,50.5808566 C1255.41993,50.3803566 1299.92341,67.2763091 1359.29211,81.6992519 C1375.47228,85.6300388 1402.37491,89.486592 1440,93.2689116" id="line9" stroke-opacity="0.15" stroke="#2B2D42"></path>
                <path d="M0,101.959039 C40.016477,67.5106806 69.516477,50.9407009 88.5,52.2490997 C129.845873,55.0987757 172.533096,114.751698 193,111.901027 C307.678705,95.9283441 372.803143,51.5716032 425,52.2490997 C525.467145,53.5531272 611.303208,114.405632 663,111.901027 C703.5345,109.937212 738.055779,26.0022519 772,26.0022519 C863.806392,26.0022519 909.654698,87.5937404 1030,101.959039 C1074.69654,107.294345 1133.88552,27.4414479 1232,26.0022519 C1255.66442,25.6551295 1271.2341,65.5256002 1320,85.6541787 C1339.16969,93.5666462 1379.16969,99.0015995 1440,101.959039" id="line10" stroke-opacity="0.15" stroke="#2B2D42"></path>
                <path d="M0,105.777785 C43.8527647,90.4774663 73.3527647,82.8670742 88.5,82.9466085 C113.403933,83.0773727 126.527031,108.630459 140,105.777785 C187.520302,95.7161608 222.129446,56.5849231 247,55.7094156 C303.302959,53.7274067 358.480944,96.3544628 389,93.3608293 C464.012692,86.0027869 522.972493,46.869946 566,46.0962887 C592.167436,45.6257844 623.192688,73.3334816 647,73.3334816 C682.363108,73.3334816 727.720971,81.4455325 772,70.4752597 C809.923355,61.0796256 845.476216,31.9091928 891,36.4831618 C932.682814,40.6712122 978.810987,103.628053 1027,105.777785 C1074.46934,107.895412 1142.32017,60.8888176 1232,55.7094156 C1271.48114,53.4292072 1340.81447,70.1186637 1440,105.777785" id="line11" stroke-opacity="0.15" stroke="#2B2D42"></path>
                <path d="M0,108 C19.5538129,84.1753945 33.5538129,71.3944744 42,69.6572398 C66.6136484,64.594638 85.7605478,90.0981681 96,85.4345258 C120.556564,74.2500376 126.975402,45.0037489 142,44.2624324 C186.154597,42.0838365 226.99951,98.8917213 264,94.9357781 C287.972267,92.3727599 309.512289,54.467208 332,44.2624324 C372.169065,26.0339749 414.391963,32.3858671 472,32.3858671 C518.20702,32.3858671 570.144015,66.1805561 624,66.291855 C650.363783,66.3463385 676.797153,26.6165617 704,32.3858671 C732.066313,38.3383002 756.328569,89.0746665 786,90.976923 C809.973958,92.5139104 833.043701,19.9346804 864,21.3010727 C885.17847,22.2358776 912.095377,65.7012914 946,69.6572398 C974.52165,72.9851097 1018.44266,16.4009128 1079,21.3010727 C1106.0167,23.4872017 1134.96832,78.2964778 1189,90.976923 C1219.77983,98.200499 1270.3034,29.6278468 1348,32.3858671 C1365.77693,33.0169003 1396.4436,58.2216113 1440,108" id="line12" stroke-opacity="0.15" stroke="#2B2D42"></path>
                <path d="M0,112 C34.3935741,59.164665 63.8935741,32.0979983 88.5,30.8 C121.121948,29.0791799 197.620626,106.10874 215,102 C289.476325,84.3926993 329.305195,31.8214928 363,30.8 C422.683737,28.990626 467.210851,105.750517 497,102 C567.706632,93.0978848 570.846086,33.895351 611,30.8 C664.006109,26.7139099 699.58825,18 742,18 C811.001461,18 893.888906,25.4630106 984,51.6 C1009.10154,58.880777 1028.59427,98.1479125 1056,102 C1091.90341,107.046501 1137.69468,38.6806564 1199,40.4 C1232.46555,41.3385609 1286.29739,23.7116569 1363.72237,51.6 C1379.02629,57.1124471 1404.45217,77.2457804 1440,112" id="line13" stroke-opacity="0.15" stroke="#2B2D42"></path>
                <path d="M0,114.86967 C41.9450548,119.440669 71.4450548,117.456691 88.5,108.917737 C146.043037,80.1074784 186.865577,24.5717865 220,24.0034862 C258.573523,23.3418979 368.625769,117.067466 391,114.86967 C463.757985,107.722734 516.446974,57.4770992 550,57.3343135 C578.967058,57.2110436 604.245872,124.599642 625,123.995968 C664.537685,122.845938 701.067825,72.412545 734,72.412545 C778.149376,72.412545 818.559852,123.560781 870,114.86967 C903.264099,109.249508 944.522156,40.1975938 983,45.4304466 C1017.28304,50.0928203 1056.10458,112.222614 1095,114.86967 C1138.49062,117.829456 1201.0382,46.3415688 1286,45.4304466 C1306.15264,45.2143317 1324.26619,71.2561713 1363.72237,92.2523231 C1376.54575,99.0761402 1401.97163,106.615256 1440,114.86967" id="line14" stroke-opacity="0.15" stroke="#2B2D42"></path>
                <path d="M0,118.281185 C31.7455765,87.4024328 56.4122431,71.1420377 74,69.5 C103.537093,66.7423419 149.140642,106.923084 163,101.945612 C192.14458,91.4785805 202.588095,34.9306311 220,33.4158894 C269.910639,29.0739333 330.227709,91.6553107 354,88.3990388 C387.214966,83.8493319 409.721087,47.9903809 430,46.9624624 C505.261613,43.1475239 559.455792,90.1437648 592,88.3990388 C610.322474,87.4167536 618.628088,47.0927788 633,46.9624624 C662.069344,46.6988781 712.06369,101.945612 737,101.945612 C772.224735,101.945612 809.829066,20.3386889 858,33.4158894 C897.476698,44.1328229 929.879104,116.646562 967,109.914184 C1002.49871,103.476012 1005.68586,11.7644096 1049,15.0881729 C1075.17242,17.0965459 1130.24733,128.28441 1172,109.914184 C1203.22329,96.1766465 1213.58205,46.4055545 1254,46.9624624 C1275.22718,47.2549459 1308.34076,101.614538 1348,118.281185 C1366.14433,125.906272 1396.811,125.906272 1440,118.281185" id="line15" stroke-opacity="0.15" stroke="#2B2D42"></path>
                <path d="M0,122 C29.054885,91.119666 48.054885,75.2848054 57,74.4954183 C90.7522979,71.5168506 103.279177,112.015422 120,107.229668 C181.646736,89.5854339 227.943409,56.8807663 256,56.930699 C325.963163,57.0552132 371.082345,105.928191 405,101.640894 C461.722522,94.47099 496.592515,46.2264239 532,44.954754 C603.593565,42.3834508 682.259728,86.4713632 736,86.4713632 C773.806288,86.4713632 836.75424,48.4412207 882,44.954754 C937.884674,40.6484929 978.075329,70.9822377 1046,74.4954183 C1101.1681,77.3488069 1191.09704,19.2631215 1304,34.5756017 C1320.45829,36.8077601 1331.934,82.8373835 1359.29211,101.640894 C1372.88948,110.986513 1399.79211,117.772882 1440,122" id="line16" stroke-opacity="0.15" stroke="#2B2D42"></path>
                <path d="M0,124 C75.9799654,120.279151 129.313299,114.06158 160,105.347287 C227.955602,86.0495111 280.019536,42.9064982 316,41.054955 C360.262732,38.777209 418.922115,108.076628 453,105.347287 C534.393756,98.8283574 617.054858,41.054955 701,41.054955 C785.414496,41.054955 721.171079,75.1844162 801,94.2350317 C829.629761,101.067324 900.420621,39.1304717 968,41.054955 C1025.69922,42.6980774 1080.92748,108.336629 1107,111.697146 C1146.74321,116.819694 1202.68628,47.8370625 1269,49.7860124 C1302.5476,50.7719712 1359.5476,75.5099671 1440,124" id="line17" stroke-opacity="0.15" stroke="#2B2D42"></path>
                <path d="M0,5 C27.0373188,22.4324173 46.7039854,32.3959922 59,34.8907247 C91.8809654,41.5619281 120.57661,29.5319152 135,34.8907247 C214.839772,64.5540803 250.116055,96.2165175 283,101.048862 C346.645799,110.401707 372.539996,58.6452997 410,64.980721 C533.613184,85.8867946 637.413873,124.961442 720,124.961442 C799.045625,124.961442 902.843964,127.343005 1015,94.6721742 C1048.59873,84.8849323 1068.68792,34.3760073 1107,26.9198648 C1145.05843,19.5130877 1205.68077,68.7602893 1278,64.980721 C1310.1342,63.3013142 1364.1342,43.3077405 1440,5" id="line18" stroke-opacity="0.15" stroke="#2B2D42" transform="translate(720.000000, 65.000000) rotate(-180.000000) translate(-720.000000, -65.000000) "></path>
                <path d="M0,21 C289.101541,87.6666667 566.101541,121 831,121 C922.893452,121 987.004278,66.0744643 1064,58.0517928 C1109.23287,53.3386942 1159.19394,96.4337766 1217,90.7211155 C1243.69999,88.0824996 1290.60112,124.9475 1340,108.250996 C1350.41438,104.731002 1360.61161,59.5336229 1377,45.3027888 C1388.19661,35.5802266 1409.19661,27.479297 1440,21" id="line19" stroke-opacity="0.15" stroke="#2B2D42" transform="translate(720.000000, 71.000000) rotate(-180.000000) translate(-720.000000, -71.000000) "></path>
                <path d="M0,23 C54.5753481,59.0848697 94.5753481,77.766878 120,79.0460251 C256.01717,85.8892246 358.395816,42.9777704 421,51.2217573 C540.534805,66.9626122 639.410999,118 720,118 C819.285844,118 935.601047,75.1136985 1094,51.2217573 C1146.09309,43.364351 1225.45893,86.1661796 1338,79.0460251 C1358.50572,77.7486866 1392.50572,59.0666782 1440,23" id="line20" stroke-opacity="0.15" stroke="#2B2D42" transform="translate(720.000000, 70.500000) rotate(-180.000000) translate(-720.000000, -70.500000) "></path>
                <path d="M0,16 C22.4090968,38.8562183 39.4090968,50.9130881 51,52.1706095 C73.9579846,54.6613695 144,35.4764821 161,30.7067313 C215.986439,15.2789898 202.286854,62.909147 229,64.4130214 C259.908854,66.1531022 285.331862,19.7948031 305,23.5521053 C348.900854,31.9387036 339.451375,73.2774506 374,88.7386983 C431.329709,114.394968 528.837958,114.972327 597,114.972327 C636.725481,114.972327 671.949994,43.1957748 720,40.2462328 C746.135248,38.6419247 778.330013,79.2851873 816,77.60928 C828.602433,77.0486079 855.725884,116.186355 873,114.972327 C883.051629,114.265897 885.120405,54.0189026 900,52.1706095 C911.207122,50.7784987 927.277909,79.3305116 947,77.60928 C956.633138,76.7685546 968.173102,41.9842064 984,40.2462328 C1003.10228,38.1485843 1036.42086,68.2580512 1083,65.5 C1116.1553,63.5368034 1202.85811,110.752584 1288,98.2781997 C1321.76792,93.3307648 1372.43458,65.9046982 1440,16" id="line21" stroke-opacity="0.15" stroke="#2B2D42" transform="translate(720.000000, 65.500000) rotate(-180.000000) translate(-720.000000, -65.500000) "></path>
                <path d="M0,25 C28.8520658,71.5513248 53.8520658,97.6061627 75,103.164514 C97.9128869,109.18675 112.871718,47.1627683 138,41.2677414 C172.494883,33.1753354 215.906122,78.9987736 232,79.3580628 C307.738747,81.0488992 368.377351,32.0520437 415,34.9193545 C480.471841,38.9458979 544.25151,79.3580628 606,79.3580628 C679.392698,79.3580628 762.671083,26.0644407 866,34.9193545 C908.943071,38.5994201 960.36699,115.240085 1008,111.893546 C1061.78989,108.114444 1123.36673,63.612911 1225,41.2677414 C1251.8247,35.3700434 1294.08426,71.4193613 1352,68.5 C1369.4211,67.6218536 1398.75444,53.1218536 1440,25" id="line22" stroke-opacity="0.15" stroke="#2B2D42" transform="translate(720.000000, 68.500000) rotate(-180.000000) translate(-720.000000, -68.500000) "></path>
                <path d="M0,15.0935878 C97.817648,14.9113665 165.150981,18.4796685 202,25.7984939 C264.495415,38.2111182 312.058167,81.0183609 343,81.305414 C399.293597,81.8276601 442.269659,12.6848791 477,15.0935878 C541.882217,19.5934678 604.742335,55.8780698 663,57.5167339 C702.74698,58.6347319 741.903136,25.7984939 772,25.7984939 C809.436768,25.7984939 843.471185,93.2597511 883,107.472962 C910.006124,117.183441 940.372639,77.666358 973,70.996986 C1014.60082,62.4933447 1051.51206,19.3801027 1099,15.0935878 C1129.49989,12.3405056 1182.17811,71.2442645 1232,70.996986 C1254.51344,70.8852462 1278.53885,37.7269022 1320,25.7984939 C1341.18663,19.7030813 1381.18663,16.1347793 1440,15.0935878" id="line23" stroke="#DB295E" stroke-width="2" transform="translate(720.000000, 62.000000) rotate(-180.000000) translate(-720.000000, -62.000000) "></path>
                <path d="M0,20.6726783 C61.789812,41.7952479 105.123145,52.2421718 130,52.01345 C177.199437,51.5794906 216.10298,16.962098 241,20.6726783 C323.851752,33.0206654 385.63042,80.5668568 428,81.8076503 C499.334538,83.8966829 592.838105,36.1106067 633,37.8544025 C668.354198,39.3894521 700.050037,89 730,89 C753.045962,89 763.904924,80.0399893 778,64.2263512 C793.538511,46.7932855 812.319456,21.9737707 840,13.0807537 C884.262673,-1.1396573 970.384441,26.8656369 1031,20.6726783 C1062.00729,17.5047318 1078.03677,54.5014034 1119,64.2263512 C1147.80239,71.064234 1194.62203,51.0478788 1243,52.01345 C1263.7037,52.4266731 1301.70402,73.7631649 1353.7,64.2263512 C1370.72764,61.1032365 1399.49431,46.5853456 1440,20.6726783" id="line24" stroke-opacity="0.15" stroke="#2B2D42" transform="translate(720.000000, 49.000000) rotate(-180.000000) translate(-720.000000, -49.000000) "></path>
                <path d="M0,68.3329391 C56.2281623,54.8376135 93.2281623,48.8976121 111,50.512935 C162.411493,55.1858429 180.044309,84.2228848 203,81.4009421 C258.288243,74.6043592 292.566609,28.7557982 318,29.9209303 C376.756877,32.6126483 395.368984,93.0174707 425,90.9049443 C481.799651,86.8554455 522.72424,22.0982538 554,22.0009284 C632.096844,21.757903 684.811634,69.3072776 725,68.3329391 C772.690709,67.1767117 816.811965,44.7528766 850,44.1769335 C897.615837,43.3506112 970.628885,29.9209303 1011,29.9209303 C1080.33194,29.9209303 1118.22676,88.467837 1172,90.9049443 C1226.36513,93.3688772 1285.41698,47.1827295 1348,39.4249324 C1367.94673,36.9523345 1398.61339,46.5883368 1440,68.3329391" id="line25" stroke-opacity="0.15" stroke="#2B2D42" transform="translate(720.000000, 56.500000) rotate(-180.000000) translate(-720.000000, -56.500000) "></path>
                <path d="M0,83.2689116 C45.2289715,59.9420823 85.2289715,45.7127306 120,40.5808566 C148.497236,36.3749349 189.75801,58.46953 228,57.1354529 C268.673008,55.7165694 305.991709,31.0059658 323,31.0059658 C361.319642,31.0059658 372.083622,72.9757232 385,71.6992519 C412.477482,68.9837678 432.493337,31.6535863 447,31.0059658 C459.987089,30.4261836 477.374483,72.300143 487,71.6992519 C518.964093,69.703833 545.061431,31.261221 567,31.0059658 C590.248552,30.735469 612.226054,83.6448754 633,83.2689116 C667.114831,82.6515065 702.372704,31.0059658 737,31.0059658 C791.602265,31.0059658 844.670676,81.7337489 897,83.2689116 C965.916048,85.2906718 1053.69034,83.6346993 1150,71.6992519 C1175.42242,68.5487066 1196.67612,40.7552185 1224,40.5808566 C1255.41993,40.3803566 1299.92341,57.2763091 1359.29211,71.6992519 C1375.47228,75.6300388 1402.37491,79.486592 1440,83.2689116" id="line26" stroke-opacity="0.15" stroke="#2B2D42" transform="translate(720.000000, 57.500000) rotate(-180.000000) translate(-720.000000, -57.500000) "></path>
                <path d="M0,88.9590387 C40.016477,54.5106806 69.516477,37.9407009 88.5,39.2490997 C129.845873,42.0987757 172.533096,101.751698 193,98.9010265 C307.678705,82.9283441 372.803143,38.5716032 425,39.2490997 C525.467145,40.5531272 611.303208,101.405632 663,98.9010265 C703.5345,96.9372119 738.055779,13.0022519 772,13.0022519 C863.806392,13.0022519 909.654698,74.5937404 1030,88.9590387 C1074.69654,94.2943454 1133.88552,14.4414479 1232,13.0022519 C1255.66442,12.6551295 1271.2341,52.5256002 1320,72.6541787 C1339.16969,80.5666462 1379.16969,86.0015995 1440,88.9590387" id="line27" stroke-opacity="0.15" stroke="#2B2D42" transform="translate(720.000000, 56.000000) rotate(-180.000000) translate(-720.000000, -56.000000) "></path>
                <path d="M0,88.7777849 C43.8527647,73.4774663 73.3527647,65.8670742 88.5,65.9466085 C113.403933,66.0773727 126.527031,91.6304592 140,88.7777849 C187.520302,78.7161608 222.129446,39.5849231 247,38.7094156 C303.302959,36.7274067 358.480944,79.3544628 389,76.3608293 C464.012692,69.0027869 522.972493,29.869946 566,29.0962887 C592.167436,28.6257844 623.192688,56.3334816 647,56.3334816 C682.363108,56.3334816 727.720971,64.4455325 772,53.4752597 C809.923355,44.0796256 845.476216,14.9091928 891,19.4831618 C932.682814,23.6712122 978.810987,86.6280532 1027,88.7777849 C1074.46934,90.8954118 1142.32017,43.8888176 1232,38.7094156 C1271.48114,36.4292072 1340.81447,53.1186637 1440,88.7777849" id="line28" stroke-opacity="0.15" stroke="#2B2D42" transform="translate(720.000000, 54.000000) rotate(-180.000000) translate(-720.000000, -54.000000) "></path>
                <path d="M0,104 C19.5538129,80.1753945 33.5538129,67.3944744 42,65.6572398 C66.6136484,60.594638 85.7605478,86.0981681 96,81.4345258 C120.556564,70.2500376 126.975402,41.0037489 142,40.2624324 C186.154597,38.0838365 226.99951,94.8917213 264,90.9357781 C287.972267,88.3727599 309.512289,50.467208 332,40.2624324 C372.169065,22.0339749 414.391963,28.3858671 472,28.3858671 C518.20702,28.3858671 570.144015,62.1805561 624,62.291855 C650.363783,62.3463385 676.797153,22.6165617 704,28.3858671 C732.066313,34.3383002 756.328569,85.0746665 786,86.976923 C809.973958,88.5139104 833.043701,15.9346804 864,17.3010727 C885.17847,18.2358776 912.095377,61.7012914 946,65.6572398 C974.52165,68.9851097 1018.44266,12.4009128 1079,17.3010727 C1106.0167,19.4872017 1134.96832,74.2964778 1189,86.976923 C1219.77983,94.200499 1270.3034,25.6278468 1348,28.3858671 C1365.77693,29.0169003 1396.4436,54.2216113 1440,104" id="line29" stroke-opacity="0.15" stroke="#2B2D42" transform="translate(720.000000, 60.500000) rotate(-180.000000) translate(-720.000000, -60.500000) "></path>
                <path d="M0,107 C34.3935741,54.164665 63.8935741,27.0979983 88.5,25.8 C121.121948,24.0791799 197.620626,101.10874 215,97 C289.476325,79.3926993 329.305195,26.8214928 363,25.8 C422.683737,23.990626 467.210851,100.750517 497,97 C567.706632,88.0978848 570.846086,28.895351 611,25.8 C664.006109,21.7139099 699.58825,13 742,13 C811.001461,13 893.888906,20.4630106 984,46.6 C1009.10154,53.880777 1028.59427,93.1479125 1056,97 C1091.90341,102.046501 1137.69468,33.6806564 1199,35.4 C1232.46555,36.3385609 1286.29739,18.7116569 1363.72237,46.6 C1379.02629,52.1124471 1404.45217,72.2457804 1440,107" id="line30" stroke="#3B945F" stroke-width="2" transform="translate(720.000000, 60.000000) rotate(-180.000000) translate(-720.000000, -60.000000) "></path>
                <path d="M0,91.8696703 C41.9450548,96.4406693 71.4450548,94.4566915 88.5,85.9177368 C146.043037,57.1074784 186.865577,1.57178654 220,1.00348619 C258.573523,0.341897888 368.625769,94.0674661 391,91.8696703 C463.757985,84.7227344 516.446974,34.4770992 550,34.3343135 C578.967058,34.2110436 604.245872,101.599642 625,100.995968 C664.537685,99.8459378 701.067825,49.412545 734,49.412545 C778.149376,49.412545 818.559852,100.560781 870,91.8696703 C903.264099,86.2495081 944.522156,17.1975938 983,22.4304466 C1017.28304,27.0928203 1056.10458,89.2226143 1095,91.8696703 C1138.49062,94.8294559 1201.0382,23.3415688 1286,22.4304466 C1306.15264,22.2143317 1324.26619,48.2561713 1363.72237,69.2523231 C1376.54575,76.0761402 1401.97163,83.6152559 1440,91.8696703" id="line31" stroke-opacity="0.15" stroke="#2B2D42" transform="translate(720.000000, 51.000000) rotate(-180.000000) translate(-720.000000, -51.000000) "></path>
                <path d="M0,104.281185 C31.7455765,73.4024328 56.4122431,57.1420377 74,55.5 C103.537093,52.7423419 149.140642,92.9230839 163,87.9456119 C192.14458,77.4785805 202.588095,20.9306311 220,19.4158894 C269.910639,15.0739333 330.227709,77.6553107 354,74.3990388 C387.214966,69.8493319 409.721087,33.9903809 430,32.9624624 C505.261613,29.1475239 559.455792,76.1437648 592,74.3990388 C610.322474,73.4167536 618.628088,33.0927788 633,32.9624624 C662.069344,32.6988781 712.06369,87.9456119 737,87.9456119 C772.224735,87.9456119 809.829066,6.33868891 858,19.4158894 C897.476698,30.1328229 929.879104,102.646562 967,95.9141843 C1002.49871,89.4760123 1005.68586,-2.23559045 1049,1.08817289 C1075.17242,3.09654588 1130.24733,114.28441 1172,95.9141843 C1203.22329,82.1766465 1213.58205,32.4055545 1254,32.9624624 C1275.22718,33.2549459 1308.34076,87.6145385 1348,104.281185 C1366.14433,111.906272 1396.811,111.906272 1440,104.281185" id="line32" stroke-opacity="0.15" stroke="#2B2D42" transform="translate(720.000000, 55.500000) rotate(-180.000000) translate(-720.000000, -55.500000) "></path>
                <path d="M0,93 C29.054885,62.119666 48.054885,46.2848054 57,45.4954183 C90.7522979,42.5168506 103.279177,83.0154218 120,78.2296679 C181.646736,60.5854339 227.943409,27.8807663 256,27.930699 C325.963163,28.0552132 371.082345,76.9281908 405,72.6408935 C461.722522,65.47099 496.592515,17.2264239 532,15.954754 C603.593565,13.3834508 682.259728,57.4713632 736,57.4713632 C773.806288,57.4713632 836.75424,19.4412207 882,15.954754 C937.884674,11.6484929 978.075329,41.9822377 1046,45.4954183 C1101.1681,48.3488069 1191.09704,-9.73687848 1304,5.57560167 C1320.45829,7.80776014 1331.934,53.8373835 1359.29211,72.6408935 C1372.88948,81.9865128 1399.79211,88.7728817 1440,93" id="line33" stroke-opacity="0.15" stroke="#2B2D42" transform="translate(720.000000, 48.000000) rotate(-180.000000) translate(-720.000000, -48.000000) "></path>
                <path d="M0,84 C75.9799654,80.2791513 129.313299,74.0615802 160,65.3472865 C227.955602,46.0495111 280.019536,2.90649815 316,1.05495501 C360.262732,-1.222791 418.922115,68.0766276 453,65.3472865 C534.393756,58.8283574 617.054858,1.05495501 701,1.05495501 C785.414496,1.05495501 721.171079,35.1844162 801,54.2350317 C829.629761,61.0673245 900.420621,-0.869528326 968,1.05495501 C1025.69922,2.69807739 1080.92748,68.3366294 1107,71.6971464 C1146.74321,76.8196942 1202.68628,7.83706255 1269,9.78601238 C1302.5476,10.7719712 1359.5476,35.5099671 1440,84" id="line34" stroke="#5224D1" stroke-width="2" transform="translate(720.000000, 42.500000) rotate(-180.000000) translate(-720.000000, -42.500000) "></path>
            </g>
        </g>
    </g>
</svg>